<?xml version="1.0" encoding="UTF-8"?>
<svg id="Layer_2" data-name="Layer 2" xmlns="http://www.w3.org/2000/svg" viewBox="0 0 329.39 328.94">
  <defs>
    <style>
      .cls-1 {
        fill: #172554;
      }

      .cls-2 {
        fill: #71717a;
      }
    </style>
  </defs>
  <g id="Layer_5" data-name="Layer 5">
    <g>
      <g id="Cog">
        <path class="cls-2" d="M44.92,273.37c3.74-.24,8.36,1.21,11.95,3.53l31.85-69.06c-6.73-21.92-5.52-46.33,5.28-68.58,10.22-21.05,27.27-36.55,47.18-45.18L174,22.89c-2.39-1.41-4.49-3.22-5.83-5.17l-8.46-12.28c-3.03-4.4-9.65-6.58-14.7-4.83l-48.49,16.81c-5.06,1.75-8.91,7.55-8.56,12.89l.91,14.06c.34,5.34-2.81,12.41-7.01,15.72l-9.82,8.65c-3.83,3.74-11.27,5.99-16.53,5.02l-15.34-2.83c-5.26-.97-11.47,2.17-13.81,6.98L3.95,124.08c-2.33,4.81-.95,11.64,3.06,15.16l11.72,10.3c4.02,3.53,6.86,10.77,6.31,16.09l-.72,14.15c.03,5.34-3.55,12.21-7.95,15.24l-10.94,7.52c-4.41,3.03-6.58,9.65-4.82,14.71l16.8,48.49c1.75,5.04,7.55,8.9,12.89,8.55l14.62-.94Z"/>
      </g>
      <polygon class="cls-1" points="220.25 328.94 329.39 328.94 297.2 32.77 186.67 32.77 49.07 328.94 94.31 328.94 115.24 282.08 115.24 282.08 115.26 282.03 127.43 254.78 127.51 254.78 152.98 198.09 152.98 198.09 199.72 93.87 208.54 198.1 213.66 254.78 213.72 254.78 216.12 282.04 216.12 282.08 216.12 282.08 220.25 328.94"/>
    </g>
  </g>
</svg>