<?xml version="1.0" encoding="UTF-8"?>
<svg id="Layer_2" data-name="Layer 2" xmlns="http://www.w3.org/2000/svg" viewBox="0 0 271.57 271.2">
  <defs>
    <style>
      .cls-1 {
        fill: #0f172a;
      }

      .cls-2 {
        fill: #71717a;
      }
    </style>
  </defs>
  <g id="Layer_5" data-name="Layer 5">
    <g>
      <g id="Cog">
        <path class="cls-2" d="M37.03,225.38c3.09-.2,6.89,1,9.85,2.91l26.26-56.94c-5.55-18.07-4.55-38.2,4.35-56.54,8.42-17.36,22.48-30.14,38.9-37.25l27.07-58.69c-1.97-1.17-3.7-2.65-4.81-4.27l-6.98-10.12c-2.5-3.63-7.95-5.42-12.12-3.98l-39.97,13.86c-4.17,1.45-7.35,6.23-7.06,10.63l.75,11.59c.28,4.4-2.32,10.23-5.78,12.96l-8.1,7.13c-3.16,3.08-9.29,4.94-13.63,4.14l-12.65-2.33c-4.33-.8-9.46,1.79-11.38,5.76L3.26,102.3c-1.93,3.97-.79,9.59,2.52,12.5l9.66,8.49c3.31,2.91,5.65,8.88,5.2,13.27l-.59,11.67c.03,4.41-2.93,10.07-6.56,12.56l-9.02,6.2c-3.63,2.5-5.43,7.96-3.98,12.12l13.85,39.98c1.44,4.16,6.23,7.34,10.63,7.05l12.05-.78Z"/>
      </g>
      <polygon class="cls-1" points="181.59 271.2 271.57 271.2 245.04 27.02 153.9 27.02 40.46 271.2 77.76 271.2 95.01 232.57 95.01 232.57 95.03 232.53 105.06 210.06 105.12 210.06 126.13 163.32 126.13 163.32 164.67 77.39 171.93 163.33 176.15 210.06 176.2 210.06 178.18 232.53 178.18 232.57 178.18 232.57 181.59 271.2"/>
    </g>
  </g>
</svg>