<?xml version="1.0" encoding="UTF-8"?>
<svg id="Layer_2" data-name="Layer 2" xmlns="http://www.w3.org/2000/svg" viewBox="0 0 805.73 99.06">
  <defs>
    <style>
      .cls-1 {
        fill: #facc15;
      }

      .cls-2 {
        fill: #0f172a;
      }
    </style>
  </defs>
  <g id="Layer_1-2" data-name="Layer 1">
    <g id="Logo">
      <path class="cls-2" d="M109.04,99.06L130.1,0h41.96c6.45,0,12.09,.65,16.93,1.95,4.84,1.3,8.84,3.46,12.01,6.47,3.17,3.02,5.56,6.97,7.18,11.86,1.61,4.89,2.42,10.87,2.42,17.94,0,7.59-.96,15.03-2.89,22.31-1.93,7.28-5.12,13.78-9.59,19.5-4.47,5.72-10.32,10.32-17.55,13.81-7.23,3.49-16.15,5.23-26.75,5.23h-44.77Zm42.74-10.92c3.43,0,6.47-1.43,9.13-4.29,2.65-2.86,4.94-6.5,6.86-10.92,1.92-4.42,3.53-9.31,4.84-14.66,1.3-5.36,2.34-10.53,3.12-15.52,.78-4.99,1.35-9.46,1.72-13.42,.36-3.95,.55-6.76,.55-8.42,0-3.22-.65-5.75-1.95-7.57-1.3-1.82-3.56-2.73-6.79-2.73h-7.49l-16.69,77.53h6.71Z"/>
      <path class="cls-2" d="M334.62,99.06h-34.63l14.35-67.39-36.97,67.39h-21.22l-7.02-69.73-14.98,69.73h-14.04L241.17,0h39.78l4.84,55.85L315.74,0h40.09l-21.22,99.06Z"/>
      <polygon class="cls-1" points="387.02 0 368.74 0 384.03 58.97 375.45 99.06 394.71 99.06 401.53 61.42 387.02 0"/>
      <polygon class="cls-2" points="446.19 0 422.79 39.16 412.18 0 393.02 0 407.53 61.42 400.71 99.06 415.3 99.06 423.26 61.62 463.04 0 446.19 0"/>
      <path class="cls-2" d="M560.34,0h33.85l-18.41,85.96h31.67l-2.65,13.1h-65.52L560.34,0Z"/>
      <path class="cls-2" d="M643.34,0h65.68l-2.5,11.86h-31.82l-6.55,30.11h26.68l-2.5,11.7h-26.68l-7.18,33.38h31.82l-2.34,12.01h-65.68L643.34,0Z"/>
      <path class="cls-2" d="M805.73,23.56c0,6.14-1.72,11.8-5.15,17-3.43,5.2-9.1,9.15-17,11.86l18.1,46.64h-34.79l-13.73-43.21h-1.72l-9.2,43.21h-33.7L729.6,0h41.03c4.78,0,9.31,.29,13.57,.86,4.26,.57,7.98,1.72,11.15,3.43,3.17,1.72,5.69,4.11,7.57,7.18,1.87,3.07,2.81,7.1,2.81,12.09Zm-44.93,22.31c2.7,0,5.02-.91,6.94-2.73,1.92-1.82,3.48-4.03,4.68-6.63,1.19-2.6,2.05-5.38,2.57-8.35,.52-2.96,.78-5.54,.78-7.72,0-2.7-.47-5.02-1.4-6.94-.94-1.92-2.96-2.89-6.08-2.89h-7.02l-7.8,35.26h7.33Z"/>
      <polygon class="cls-2" points="57.25 99.06 93.76 99.06 82.99 0 46.02 0 0 99.06 15.13 99.06 22.13 83.39 22.13 83.39 22.14 83.37 26.21 74.26 26.23 74.26 34.75 55.29 34.75 55.29 50.39 20.44 53.34 55.3 55.05 74.26 55.07 74.26 55.87 83.37 55.87 83.39 55.87 83.39 57.25 99.06"/>
      <path class="cls-2" d="M477.35,0h33.85l-18.41,85.96h31.67l-2.65,13.1h-65.52L477.35,0Z"/>
    </g>
  </g>
</svg>