<?xml version="1.0" encoding="UTF-8"?>
<svg id="Layer_2" data-name="Layer 2" xmlns="http://www.w3.org/2000/svg" viewBox="0 0 681.73 389.39">
  <defs>
    <style>
      .cls-1 {
        fill: #facc15;
      }

      .cls-2 {
        fill: #0f172a;
      }

      .cls-3 {
        fill: #71717a;
      }
    </style>
  </defs>
  <g id="Layer_5" data-name="Layer 5">
    <g>
      <g id="Cog">
        <path class="cls-3" d="M242.12,225.38c3.09-.2,6.89,1,9.85,2.91l26.26-56.94c-5.55-18.07-4.55-38.2,4.35-56.54,8.42-17.36,22.48-30.14,38.9-37.25l27.07-58.69c-1.97-1.17-3.7-2.65-4.81-4.27l-6.98-10.12c-2.5-3.63-7.95-5.42-12.12-3.98l-39.97,13.86c-4.17,1.45-7.35,6.23-7.06,10.63l.75,11.59c.28,4.4-2.32,10.23-5.78,12.96l-8.1,7.13c-3.16,3.08-9.29,4.94-13.63,4.14l-12.65-2.33c-4.33-.8-9.46,1.79-11.38,5.76l-18.47,38.07c-1.93,3.97-.79,9.59,2.52,12.5l9.66,8.49c3.31,2.91,5.65,8.88,5.2,13.27l-.59,11.67c.03,4.41-2.93,10.07-6.56,12.56l-9.02,6.2c-3.63,2.5-5.43,7.96-3.98,12.12l13.85,39.98c1.44,4.16,6.23,7.34,10.63,7.05l12.05-.78Z"/>
      </g>
      <polygon class="cls-2" points="386.67 271.2 476.65 271.2 450.12 27.02 358.98 27.02 245.54 271.2 282.84 271.2 300.1 232.57 300.1 232.57 300.11 232.53 310.15 210.06 310.21 210.06 331.21 163.32 331.21 163.32 369.75 77.39 377.01 163.33 381.24 210.06 381.29 210.06 383.26 232.53 383.27 232.57 383.27 232.57 386.67 271.2"/>
    </g>
    <g>
      <path class="cls-2" d="M92.26,389.39l17.82-83.81h35.51c5.45,0,10.23,.55,14.32,1.65,4.09,1.1,7.48,2.93,10.16,5.48,2.68,2.55,4.71,5.9,6.07,10.03,1.36,4.14,2.05,9.2,2.05,15.18,0,6.42-.81,12.72-2.44,18.87-1.63,6.16-4.34,11.66-8.12,16.5-3.78,4.84-8.73,8.73-14.85,11.68-6.12,2.95-13.66,4.42-22.64,4.42h-37.88Zm36.17-9.24c2.9,0,5.48-1.21,7.72-3.63,2.24-2.42,4.18-5.5,5.81-9.24,1.63-3.74,2.99-7.87,4.09-12.41,1.1-4.53,1.98-8.91,2.64-13.13,.66-4.22,1.14-8.01,1.45-11.35,.31-3.34,.46-5.72,.46-7.13,0-2.73-.55-4.86-1.65-6.4-1.1-1.54-3.02-2.31-5.74-2.31h-6.34l-14.12,65.6h5.68Z"/>
      <path class="cls-2" d="M283.12,389.39h-29.3l12.14-57.02-31.28,57.02h-17.95l-5.94-59-12.67,59h-11.88l17.82-83.81h33.66l4.09,47.25,25.34-47.25h33.92l-17.95,83.81Z"/>
      <polygon class="cls-1" points="327.46 305.57 312 305.57 324.93 355.47 317.67 389.39 333.97 389.39 339.74 357.54 327.46 305.57"/>
      <polygon class="cls-2" points="377.53 305.57 357.73 338.7 348.75 305.57 332.53 305.57 344.81 357.54 339.04 389.39 351.39 389.39 358.12 357.71 391.78 305.57 377.53 305.57"/>
      <path class="cls-2" d="M474.11,305.57h28.64l-15.58,72.73h26.79l-2.24,11.09h-55.44l17.82-83.81Z"/>
      <path class="cls-2" d="M544.33,305.57h55.57l-2.11,10.03h-26.93l-5.54,25.47h22.57l-2.11,9.9h-22.57l-6.07,28.25h26.93l-1.98,10.16h-55.57l17.82-83.81Z"/>
      <path class="cls-2" d="M681.73,325.5c0,5.19-1.45,9.99-4.36,14.39-2.9,4.4-7.7,7.74-14.39,10.03l15.31,39.47h-29.43l-11.61-36.56h-1.45l-7.79,36.56h-28.51l17.82-83.81h34.71c4.05,0,7.87,.24,11.48,.73,3.61,.48,6.75,1.45,9.44,2.9,2.68,1.45,4.82,3.48,6.4,6.07,1.58,2.6,2.38,6.01,2.38,10.23Zm-38.01,18.87c2.29,0,4.24-.77,5.87-2.31,1.63-1.54,2.95-3.41,3.96-5.61,1.01-2.2,1.74-4.55,2.18-7.06,.44-2.51,.66-4.69,.66-6.53,0-2.29-.4-4.24-1.19-5.87-.79-1.63-2.51-2.44-5.15-2.44h-5.94l-6.6,29.83h6.2Z"/>
      <polygon class="cls-2" points="48.44 389.39 79.33 389.39 70.22 305.57 38.94 305.57 0 389.39 12.8 389.39 18.73 376.13 18.73 376.13 18.73 376.11 22.17 368.4 22.2 368.4 29.4 352.36 29.4 352.36 42.63 322.86 45.13 352.36 46.58 368.4 46.59 368.4 47.27 376.11 47.27 376.13 47.27 376.13 48.44 389.39"/>
      <path class="cls-2" d="M403.89,305.57h28.64l-15.58,72.73h26.79l-2.24,11.09h-55.44l17.82-83.81Z"/>
    </g>
  </g>
</svg>